Chuck.S05E02.HDTV.Xvid-210Mb-Arnarcool

SCREENSHOTS:
 
http://image.bayimg.com/bakagaadn.jpg
 
http://image.bayimg.com/bakaiaadn.jpg
 
http://image.bayimg.com/bakajaadn.jpg


Hope you enjoy this :D

INFO:


Format                           : MPEG-4
Format profile                   : Base Media / Version 2
Codec ID                         : mp42
File size                        : 210 MiB
Duration                         : 43mn 25s
Overall bit rate mode            : Variable
Overall bit rate                 : 675 Kbps
Encoded date                     : UTC 2011-11-05 01:52:22
Tagged date                      : UTC 2011-11-05 02:49:35
Writing application              : HandBrake 0.9.5 2011010300

Video
ID                               : 1
Format                           : AVC
Format/Info                      : Advanced Video Codec
Format profile                   : Main@L3.0
Format settings, CABAC           : Yes
Format settings, ReFrames        : 4 frames
Codec ID                         : avc1
Codec ID/Info                    : Advanced Video Coding
Duration                         : 43mn 25s
Bit rate mode                    : Variable
Bit rate                         : 512 Kbps
Width                            : 624 pixels
Height                           : 352 pixels
Display aspect ratio             : 16:9
Frame rate mode                  : Variable
Frame rate                       : 23.976 fps
Minimum frame rate               : 11.987 fps
Maximum frame rate               : 23.981 fps
Color space                      : YUV
Chroma subsampling               : 4:2:0
Bit depth                        : 8 bits
Scan type                        : Progressive
Bits/(Pixel*Frame)               : 0.097
Stream size                      : 158 MiB (76%)
Writing library                  : x264 core 112
Encoded date                     : UTC 2011-11-05 01:52:22
Tagged date                      : UTC 2011-11-05 02:49:35
Color primaries                  : BT.601-6 525, BT.1358 525, BT.1700 NTSC, SMPTE 170M
Transfer characteristics         : BT.709-5, BT.1361
Matrix coefficients              : BT.601-6 525, BT.1358 525, BT.1700 NTSC, SMPTE 170M

Audio
ID                               : 2
Format                           : AAC
Format/Info                      : Advanced Audio Codec
Format profile                   : LC
Codec ID                         : 40
Duration                         : 43mn 25s
Bit rate mode                    : Variable
Bit rate                         : 160 Kbps
Maximum bit rate                 : 304 Kbps
Channel(s)                       : 2 channels
Channel positions                : Front: L R
Sampling rate                    : 48.0 KHz
Compression mode                 : Lossy
Stream size                      : 49.7 MiB (24%)
Encoded date                     : UTC 2011-11-05 01:52:22
Tagged date                      : UTC 2011-11-05 02:49:35

